# xmcd
#
# Track frame offsets:
#	150
#	12790
#	24102
#	38060
#	52500
#	65702
#	78440
#	91760
#	105705
#	118830
#	128829
#	142460
#	153960
#	167535
#
# Disc length: 2384 seconds
#
# Revision: 1
# Processed by: cddbd v1.5.1PL2 Copyright (c) Steve Scherf et al.
# Submitted via: audiograbber 1.83.01
#
DISCID=a8094e0e
DTITLE=Judy Garland - Judy Garland
DYEAR=1900
DGENRE=Ballad
TTITLE0=Over The Rainbow
TTITLE1=F.D.R. Jones
TTITLE2=Buds Wan't Bud
TTITLE3=Dear Mr. Gable
TTITLE4=Fascitaning Rhythm
TTITLE5=Embraceable You
TTITLE6=Zing! Went The Strings Of My Heart
TTITLE7=Swing, Mr. Charlie
TTITLE8=I'm Nobody's Baby
TTITLE9=Swance
TTITLE10=I'm Always Chasing Rainbows
TTITLE11=Friendship
TTITLE12=How About You
TTITLE13=Cry, baby, Cry
EXTD=
EXTT0=
EXTT1=
EXTT2=
EXTT3=
EXTT4=
EXTT5=
EXTT6=
EXTT7=
EXTT8=
EXTT9=
EXTT10=
EXTT11=
EXTT12=
EXTT13=
PLAYORDER=
